# xmcd CD database file
#
# Track frame offsets:
#	150
#	17933
#	31492
#	48662
#	68653
#	82839
#	99334
#	114998
#	134908
#	159698
#	174622
#	190862
#	207125
#	227362
#	242373
#	255641
#	271841
#	295652
#	311591
#
# Disc length: 4737 seconds
#
# Revision: 0
# Processed by: cddbd v1.5.2PL0 Copyright (c) Steve Scherf et al.
# Submitted via: CDex 1.70beta2
#
DISCID=fe127f13
DTITLE=Toots Thielemans - Brasilian Esssence
DYEAR=1900
DGENRE=Jazz
TTITLE0=Comecar de Movo
TTITLE1=Felicia and Bianca
TTITLE2=Linda [Voce e Linda]
TTITLE3=Coisa Feita
TTITLE4=Travessia
TTITLE5=Casa Forte
TTITLE6=Manha de Carnaval
TTITLE7=Flora
TTITLE8=Ce
TTITLE9=Retrato em Branco e Preto
TTITLE10=Choro Bandido
TTITLE11=O Futebol
TTITLE12=Coracao Vagabundo
TTITLE13=Ssamba de uma Nota So
TTITLE14=Papel Mache
TTITLE15=Samba de Orfeu
TTITLE16=Unconditional Love
TTITLE17=Obsession
TTITLE18=Bluesette
EXTD=
EXTT0=
EXTT1=
EXTT2=
EXTT3=
EXTT4=
EXTT5=
EXTT6=
EXTT7=
EXTT8=
EXTT9=
EXTT10=
EXTT11=
EXTT12=
EXTT13=
EXTT14=
EXTT15=
EXTT16=
EXTT17=
EXTT18=
PLAYORDER=
